<?xml version="1.0" encoding="utf-8"?>
<!-- Generator: Adobe Illustrator 28.0.0, SVG Export Plug-In . SVG Version: 6.00 Build 0)  -->
<svg version="1.1" id="Calque_1" xmlns="http://www.w3.org/2000/svg" xmlns:xlink="http://www.w3.org/1999/xlink" x="0px" y="0px"
	 viewBox="0 0 170 263" style="enable-background:new 0 0 170 263;" xml:space="preserve">
<style type="text/css">
	.st0{fill:#1B1717;}
	.st1{display:none;}
	.st2{display:inline;fill:#EEEBDD;}
</style>
<g>
	<path class="st0" d="M73.23,132.05c2.57,1.58,5.5,2.4,8.77,2.5V96.73c-3.22,0.12-6.11,0.96-8.66,2.52
		c-2.77,1.7-4.96,3.97-6.57,6.83c-1.61,2.86-2.39,6.06-2.36,9.59c0,3.57,0.78,6.77,2.36,9.61
		C68.34,128.12,70.49,130.38,73.23,132.05z"/>
	<path class="st0" d="M49.35,174.42c-3.37-4.85-5.41-10.32-6.12-16.39h22.61c0.88,3.95,2.74,7.02,5.56,9.19
		c2.82,2.17,6.32,3.26,10.48,3.26c0.04,0,0.07,0,0.11,0V150.6c-2.1,0.39-4.28,0.59-6.52,0.59c-6.39,0-12.09-1.5-17.1-4.5
		c-5.01-3-8.97-7.13-11.86-12.39c-2.9-5.26-4.34-11.26-4.34-18c-0.04-7.27,1.64-13.75,5.03-19.43c2.3-3.86,5.24-7.14,8.78-9.86H-0.5
		v95h57.05C53.76,179.83,51.36,177.31,49.35,174.42z"/>
</g>
<path class="st0" d="M81.89,190.12c-6.22,0-11.81-1.04-16.78-3.12H-0.5v41.99c0,19.06,15.45,34.51,34.51,34.51H82v-73.39
	C81.96,190.11,81.93,190.12,81.89,190.12z"/>
<path class="st0" d="M134.99,0.5H34.01C14.95,0.5-0.5,15.95-0.5,35.01V82h65.14c5.15-2.14,10.93-3.24,17.36-3.28V1h5v77.89
	c4.05,0.36,7.98,1.23,11.81,2.61c0.42,0.15,0.83,0.32,1.25,0.49h69.44V35.01C169.5,15.95,154.05,0.5,134.99,0.5z"/>
<g>
	<path class="st0" d="M95.9,128.98c1.68-1.75,2.99-3.77,3.94-6.06c0.95-2.29,1.43-4.73,1.43-7.31c-0.04-3.42-0.85-6.57-2.44-9.43
		c-1.59-2.86-3.78-5.15-6.57-6.88c-1.63-1.01-3.39-1.72-5.27-2.14v36.9c1.03-0.24,2.03-0.55,2.99-0.97
		C92.25,132.1,94.22,130.73,95.9,128.98z"/>
	<path class="st0" d="M108.75,87c1.36,1.05,2.68,2.19,3.93,3.46c4.08,4.1,7.31,9.52,9.69,16.28c2.38,6.76,3.59,15.05,3.63,24.86
		c0,9.21-1.03,17.43-3.1,24.65c-2.06,7.22-5.02,13.35-8.87,18.4c-2.16,2.83-4.58,5.27-7.24,7.35h62.71V87H108.75z"/>
	<path class="st0" d="M96.24,144.07c-2.7,2.23-5.78,3.95-9.24,5.18v20.6c4.6-1.18,8.26-4.05,10.99-8.63
		c3.67-6.16,5.52-14.61,5.56-25.34h-0.74C101.18,139.07,98.99,141.8,96.24,144.07z"/>
</g>
<path class="st0" d="M98.25,187c-3.5,1.47-7.25,2.41-11.25,2.84v73.66h47.99c19.06,0,34.51-15.45,34.51-34.51V187H98.25z"/>
<g class="st1">
	<path class="st2" d="M82.68,78.7c5.58,0,10.95,0.94,16.12,2.81c5.17,1.87,9.8,4.85,13.87,8.95c4.08,4.1,7.31,9.52,9.69,16.28
		c2.38,6.76,3.59,15.05,3.63,24.86c0,9.21-1.03,17.43-3.1,24.65c-2.06,7.22-5.02,13.35-8.87,18.4c-3.85,5.05-8.49,8.89-13.93,11.52
		c-5.44,2.63-11.51,3.94-18.22,3.94c-7.24,0-13.63-1.4-19.17-4.21c-5.54-2.81-10-6.64-13.37-11.49c-3.37-4.85-5.41-10.32-6.12-16.39
		h22.61c0.88,3.95,2.74,7.02,5.56,9.19c2.82,2.17,6.32,3.26,10.48,3.26c7.06,0,12.43-3.08,16.1-9.24
		c3.67-6.16,5.52-14.61,5.56-25.34h-0.74c-1.62,3.18-3.81,5.9-6.57,8.18c-2.75,2.28-5.9,4.03-9.45,5.27
		c-3.55,1.24-7.32,1.85-11.31,1.85c-6.39,0-12.09-1.5-17.1-4.5c-5.01-3-8.97-7.13-11.86-12.39c-2.9-5.26-4.34-11.26-4.34-18
		c-0.04-7.27,1.64-13.75,5.03-19.43c3.39-5.68,8.13-10.14,14.22-13.37C67.51,80.26,74.6,78.67,82.68,78.7z M82.84,96.71
		c-3.57,0-6.73,0.85-9.51,2.54c-2.77,1.7-4.96,3.97-6.57,6.83c-1.61,2.86-2.39,6.06-2.36,9.58c0,3.57,0.78,6.77,2.36,9.61
		c1.57,2.84,3.72,5.1,6.46,6.78c2.74,1.68,5.87,2.51,9.4,2.51c2.65,0,5.1-0.49,7.36-1.48c2.26-0.99,4.23-2.36,5.9-4.1
		c1.68-1.75,2.99-3.77,3.94-6.06c0.95-2.29,1.43-4.73,1.43-7.31c-0.04-3.42-0.85-6.57-2.44-9.43c-1.59-2.86-3.78-5.15-6.57-6.88
		C89.48,97.57,86.34,96.71,82.84,96.71z"/>
</g>
</svg>
