<?xml version="1.0" encoding="utf-8"?>
<!-- Generator: Adobe Illustrator 25.0.0, SVG Export Plug-In . SVG Version: 6.00 Build 0)  -->
<svg version="1.1" id="Calque_1" xmlns="http://www.w3.org/2000/svg" xmlns:xlink="http://www.w3.org/1999/xlink" x="0px" y="0px"
	 viewBox="0 0 184 88" style="enable-background:new 0 0 184 88;" xml:space="preserve">
<style type="text/css">
	.st0{fill:#DE0A1A;}
	.st1{fill:#E64828;}
</style>
<g>
	<g>
		<g>
			<polygon class="st0" points="90.8,16.7 89.8,14.6 15.7,44.3 			"/>
			<polygon class="st0" points="76.7,0.5 78.7,1 70.2,19.7 68.1,20.7 			"/>
			<polygon class="st0" points="65.6,25.7 45.5,73.1 67.6,25.1 65.9,25.1 			"/>
		</g>
		<g>
			<path d="M33.9,40.8c-7.2,0-13.1,5.9-13.1,13.1c0,7.2,5.9,13.1,13.1,13.1S47,61.1,47,53.9C47,46.7,41.1,40.8,33.9,40.8z
				 M33.9,65.1c-6.2,0-11.2-5-11.2-11.2c0-6.2,5-11.2,11.2-11.2s11.2,5,11.2,11.2C45.1,60.1,40.1,65.1,33.9,65.1z"/>
			<path class="st1" d="M39.6,45l0.4-0.4c-0.9-0.6-1.9-1.1-3-1.4c-3,3.5-6.2,5.5-12.5,4.8c0,0,0,0-0.1,0c-0.9,1.4-1.4,2.9-1.6,4.6
				C34.4,55.4,39.6,45,39.6,45z"/>
			<path class="st1" d="M24.9,59.2c13.7,0.5,17.4-11.9,17.4-11.9l0.2-0.4c-0.5-0.6-1-1.1-1.6-1.6c-7.8,12-18.3,8.7-18.3,8.7
				s0,0-0.1,0c0,0,0,0,0,0c0,1.9,0.5,3.7,1.3,5.2C24.3,59.2,24.6,59.2,24.9,59.2z"/>
			<path class="st1" d="M31.4,64.5c11.5-4.3,13.3-13.6,13.3-13.6s0,0,0-0.1c-0.3-1.1-0.7-2-1.3-3c0,0.1-0.1,0.2-0.1,0.3
				c-5,13.3-17.9,12.4-17.9,12.4s-0.2,0-0.6-0.1c1.5,2,3.6,3.6,6.1,4.3C31.1,64.7,31.2,64.6,31.4,64.5z"/>
			<path class="st1" d="M33.7,65.1c0.1,0,0.1,0,0.2,0c6.2,0,11.2-5,11.2-11.2c0-0.2,0-0.4,0-0.6C41.5,61.8,34,65,33.7,65.1z"/>
			<path class="st1" d="M35.9,42.9c-0.6-0.1-1.3-0.2-2-0.2c-3.5,0-6.7,1.6-8.8,4.2C29.9,47.4,33.7,45,35.9,42.9z"/>
		</g>
		<path class="st0" d="M59.5,40.6l-14,32.5L44,72.6L58,38c-1.9-2.9-4.3-5.5-7.1-7.5L15.7,44.3v-1.5l32.5-14
			c-4.1-2.3-8.8-3.6-13.9-3.6c-15.6,0-28.2,12.6-28.2,28.2c0,15.6,12.6,28.2,28.2,28.2S62.6,69,62.6,53.4
			C62.6,48.8,61.5,44.4,59.5,40.6z M34.1,69.5c-8.5,0-15.4-6.9-15.4-15.4c0-8.5,6.9-15.4,15.4-15.4s15.4,6.9,15.4,15.4
			C49.5,62.7,42.6,69.5,34.1,69.5z"/>
		<circle class="st0" cx="2.7" cy="61" r="2"/>
		<circle class="st0" cx="11.2" cy="77.6" r="2"/>
		<circle class="st0" cx="31.4" cy="85.1" r="2"/>
	</g>
	<g>
		<g>
			<path class="st0" d="M70,78.1v-3.9c3.1,1.4,5.7,2.2,7.7,2.2c1.5,0,2.8-0.4,3.7-1.2c0.9-0.8,1.4-1.9,1.4-3.2c0-1.1-0.3-2-0.9-2.8
				c-0.6-0.8-1.8-1.6-3.4-2.5l-1.9-1.1c-2.4-1.3-4-2.6-5-3.8c-1-1.2-1.4-2.6-1.4-4.1c0-2.1,0.8-3.9,2.3-5.3c1.5-1.4,3.5-2.1,5.9-2.1
				c2.1,0,4.4,0.4,6.7,1.1v3.6c-2.9-1.1-5.1-1.7-6.5-1.7c-1.4,0-2.5,0.4-3.4,1.1c-0.9,0.7-1.3,1.6-1.3,2.7c0,0.9,0.3,1.7,1,2.4
				s1.8,1.6,3.6,2.5l2,1.1c2.4,1.4,4.1,2.6,5,3.9c0.9,1.2,1.4,2.7,1.4,4.4c0,2.4-0.9,4.3-2.7,5.8c-1.8,1.5-4.1,2.2-7,2.2
				C75.3,79.3,72.9,78.9,70,78.1z"/>
			<path class="st0" d="M89.1,78.6l11-27.7h3.9l10.8,27.7h-4.2l-3-7.6H95.8l-3.1,7.6H89.1z M96.9,68.1h9.5l-4.7-11.9L96.9,68.1z"/>
			<path class="st0" d="M118.7,78.6V51h3.9l13.9,21.4V51h3.4v27.7h-3.8l-13.9-21.4v21.4H118.7z"/>
			<path class="st0" d="M140,83.8v-3.5c1.5,0.5,2.8,0.7,4,0.7c1.5,0,2.5-0.4,3.1-1.3c0.6-0.9,0.9-2.3,0.9-4.5V51h3.9v24.2
				c0,6-2.8,9-8.5,9C142.5,84.2,141.4,84.1,140,83.8z"/>
			<path class="st0" d="M170.2,79.3c-3.9,0-7.1-1.3-9.4-4c-2.3-2.6-3.5-6.2-3.5-10.6c0-4.4,1.2-7.9,3.5-10.6c2.3-2.6,5.5-4,9.4-4
				c3.9,0,7.1,1.3,9.4,4s3.5,6.2,3.5,10.6c0,4.4-1.2,7.9-3.5,10.6S174.2,79.3,170.2,79.3z M170.2,76.4c2.8,0,4.9-1,6.4-3.1
				s2.3-4.9,2.3-8.6c0-3.6-0.8-6.5-2.3-8.5s-3.7-3.1-6.4-3.1s-4.9,1-6.4,3.1c-1.5,2-2.3,4.9-2.3,8.5c0,3.7,0.8,6.5,2.3,8.6
				C165.3,75.4,167.5,76.4,170.2,76.4z"/>
		</g>
	</g>
	<g>
		<g>
			<path class="st0" d="M71.6,41h17.3v1.3H71.6V41z M72.7,27.5h15v1.3h-15V27.5z M74,34.1h12.2v1.3H74V34.1z"/>
			<path class="st0" d="M108.9,31.7h-3.2c-0.7,3.2-1.7,5.6-3.4,7.5c2.4,1.2,4.6,2.4,6.1,3.5l-1,1.2c-1.5-1.1-3.7-2.5-6.1-3.7
				c-2.1,1.8-5.2,3-9.5,3.6c-0.1-0.4-0.4-0.9-0.7-1.3c3.9-0.5,6.7-1.5,8.7-3c-1.6-0.7-3.3-1.4-4.9-2l-0.5,1l-1.3-0.5
				c0.8-1.7,1.8-4,2.8-6.4h-5.1v-1.3h5.6c0.7-1.7,1.4-3.4,1.9-4.8l1.7,0.3c0,0.1-0.2,0.2-0.5,0.2c-0.5,1.3-1.1,2.8-1.7,4.3h10.8
				V31.7z M97.5,31.7c-0.7,1.6-1.4,3.2-2,4.7c1.7,0.6,3.6,1.4,5.4,2.2c1.7-1.7,2.6-4,3.3-6.9H97.5z"/>
		</g>
	</g>
</g>
</svg>
